<?xml version="1.0" encoding="utf-8"?>
<!-- Generator: Adobe Illustrator 18.1.1, SVG Export Plug-In . SVG Version: 6.00 Build 0)  -->
<!DOCTYPE svg PUBLIC "-//W3C//DTD SVG 1.1//EN" "http://www.w3.org/Graphics/SVG/1.1/DTD/svg11.dtd">
<svg version="1.1" id="layout" xmlns="http://www.w3.org/2000/svg" xmlns:xlink="http://www.w3.org/1999/xlink" x="0px" y="0px"
	 viewBox="814.3 6.5 650.6 559.6" enable-background="new 814.3 6.5 650.6 559.6" xml:space="preserve">
<g>
	<g>
		<path fill="#231F20" d="M1358.4,53.2c-81.8-35-174.1-39.8-193.8-42.3C1015.2-8,887.9,30,832.4,181.4
			c-41.6,113.6-12.3,256.9,95,324.1c106.9,67,346.5,94,450.2-0.7C1539.5,357,1442,89.1,1358.4,53.2z"/>
	</g>
	<g>
		<path fill="#FFFFFF" d="M1075.1,448.8c-3.4,4.1-8,10.7-14.4,9.3c-10.7-2.3-9-22.7-9.2-30.3c-0.1-4.6-0.3-11.7-0.5-16.3
			c5.4-0.2,13.4,1.5,17-1.7c1.5-1.4,1.8-3.9,1.7-7.8c-0.1-8.5-12.5-6.7-18.2-6.8c-0.1-1.8-0.6-27-1.9-27c-5.9-0.2-12.2-0.5-17.9,0.5
			c-0.2,2.3-0.3,24.8-0.1,24.8c-6.7,0.3-16.4-0.6-18.4,1.3c-3,3.1-2.4,12,0.9,13.9c2.5,1.5,15.5,0.9,17.4,0.8
			c0.7,23.8-1.2,44,5.3,55.6c8.2,14.6,36.6,15.5,46.5,4.4c3.7-4.1,9-11.1,6.6-17.3C1087.8,446,1079.5,443.6,1075.1,448.8z"/>
		<path fill="#FFFFFF" d="M1141.6,373.9c-1.5,4.7-3.4,9-5.6,12.3c0.1,0.2,0.2,0.3,0.3,0.5c2.2,4,6,11.3,9.3,17.9
			c0.1,0.2,0.2,0.4,0.3,0.6c4.1-6,7.5-13.4,10.2-20.5c-0.9-0.6-1.9-1.4-3.1-2.1C1148.2,379.1,1144.1,376.2,1141.6,373.9z"/>
		<path fill="#FFFFFF" d="M1146,353.6c-0.7,5-1.6,10.1-2.8,15c0.4,0.2,0.8,0.4,1.1,0.7c1.7,2.1,7.7,6.2,11.7,9
			c0.7,0.5,1.3,0.9,1.9,1.4c1.6-4.8,3-9.4,4-13.1c0.7-2.8,1.3-5.3,1.7-7.6c-3.4-1.6-10.6-3.5-15.2-4.7
			C1147.6,354.1,1146.8,353.8,1146,353.6z"/>
		<path fill="#FFFFFF" d="M1146.7,348.6c0.9,0.3,1.9,0.5,3.1,0.8c5.8,1.6,11.1,3,14.6,4.4c0.6-5,0.8-9.6,1.6-16.5
			c-4.1-0.6-14.1-3.3-18.2-3.1C1147.6,338.4,1147.3,343.3,1146.7,348.6z"/>
		<path fill="#FFFFFF" d="M1111.9,363.5c-0.6-2.3-1.1-4.6-1.4-6.9c-4.7,0.7-12.3,2.1-16.7,3.3c1.1,7.3,2.4,15,4.2,22.3
			c5.8-4.1,11.7-8.1,16.3-10.3C1113.3,368.9,1112.5,366,1111.9,363.5z"/>
		<path fill="#FFFFFF" d="M1122,388.3c-2.3-2.9-4.4-7.1-6-11.6c-4.8,2.4-11.7,7.2-15.8,10.1c-0.3,0.2-0.6,0.4-0.8,0.6
			c3,10.2,7.1,19.2,12.9,24.4c2.1-4.5,4.3-10.1,6.4-15.5C1119.9,393.4,1121,390.7,1122,388.3z"/>
		<path fill="#FFFFFF" d="M1132.6,390.3c-2.3,1.9-4.5,2.2-6.4,1.4c-0.8,2.1-1.7,4.2-2.6,6.5c-2.3,5.8-4.7,11.9-7,16.7
			c10.4,6.5,19.1,2.7,26-5.2c-0.5-0.9-0.9-1.8-1.4-2.8C1138.1,400.9,1134.7,394.4,1132.6,390.3z"/>
		<path fill="#FFFFFF" d="M1108.8,335.7c-5.9,0.1-17.8,1.8-17.8,1.8c0.6,5,1.3,10.9,2.1,17.2c4.7-1.2,12-2.5,16.7-3.2
			C1109.2,346.3,1108.9,341,1108.8,335.7z"/>
		<path fill="#FFFFFF" d="M985,394.5c-4.7-2.8-9.2-4.4-13.3-5.7c-7.8-2.6-10.4-3.9-10.5-8.4c-0.1-3.1,0.6-5.4,2.1-7
			c2.1-2.2,5.5-2.5,7.3-2.5c1.2,0,2.4,0.1,3.6,0.4l3.4,0.7l0.4-3.4c0.4-3.2,1.1-6.7,1.6-9.8c0.3-1.4,0.5-2.7,0.7-3.8l0.4-2.5
			l-2.3-0.9c-3.5-1.5-7.3-2.3-11.2-2.3c-14,0-28.9,10.4-29.3,27.9c-0.5,18.5,12.7,25.3,25.6,32l1.2,0.6c6.8,3.5,9.5,9.1,8.7,12.7
			c-0.8,3.3-4.4,5.2-9.7,5.2h-0.6c-2.4-0.1-7.9-1.7-10.9-2.7l-2.7-0.9l-1.2,2.6c-1.8,4.1-6.8,15-7.4,16.2l-1.3,2.6l2.4,1.5
			c0.8,0.5,1.6,1.1,2.5,1.6c3.8,2.5,7.7,5.2,15.6,6.6c3.5,0.6,6.3,0.9,9,0.9c5.2,0,9.6-1.2,13.4-3.5c10.4-6.4,16.9-18.5,16.8-31.5
			C999,409.4,993.9,399.8,985,394.5z"/>
		<path fill="#FFFFFF" d="M1279.7,442.5c-4.6-16.4,2.4-30.8,4.4-45.8c0.9-7.2,3-11.9-0.4-19.8c-3.1-7.2-9.9-12.6-18.5-18.1
			c12.9,23.4-1.8,36.8-4.8,57c-1.2,7.9-1.6,16.8,3.6,25.6c6.4,10.9,17.3,14.1,29.1,16C1285.8,452.6,1281.5,448.6,1279.7,442.5z"/>
		<path fill="#FFFFFF" d="M1276.6,338.6c10.2,2.7,10.4-15.9,0.3-14C1270.3,325.8,1270.1,336.8,1276.6,338.6z"/>
		<path fill="#FFFFFF" d="M1341,379.8c-2.3-0.9-4.6-1.8-7.5-2.5c-0.6,2.1-0.9,4.3-0.9,6.5c0.7-0.4,1.5-0.7,2.2-1
			C1337,381.8,1339.1,380.8,1341,379.8z"/>
		<path fill="#FFFFFF" d="M1347.3,375c2.4-2.5,4.1-5.9,5.2-10.7c-1.2-0.4-2.5-0.6-4-0.6c-1.7,0.1-3.3,0.4-4.7,0.9
			c0.4,1.7,1.1,3.7,1.8,5.7C1346.3,371.8,1346.9,373.4,1347.3,375z"/>
		<path fill="#FFFFFF" d="M1343.5,376.4c-0.5-1.6-1.1-3.2-1.6-4.9c-0.6-1.7-1.2-3.4-1.7-5.1c-2.3,1.7-4.1,4.2-5.4,7
			c3.3,0.8,6,1.9,8.4,2.9C1343.4,376.3,1343.4,376.4,1343.5,376.4z"/>
		<path fill="#FFFFFF" d="M1336.5,386.5c-1.2,0.5-2.4,1.1-3.6,1.7c0.5,3.7,1.8,7.1,3.7,9.6c0.2,0.3,0.5,0.5,0.7,0.8
			c0.6-1.4,1.4-2.8,2.2-4.4c2-4,4.3-8.3,4.8-11.7C1341.8,384,1339.2,385.2,1336.5,386.5z"/>
		<path fill="#FFFFFF" d="M1356.3,366c-1.4,5.7-3.7,9.5-6.7,12.4c3.3,0.7,6.9,0.7,12.3-1.1c0.7-0.3,1.5,0,2,0.5
			C1362.7,373,1360.1,368.7,1356.3,366z"/>
		<path fill="#FFFFFF" d="M1340,348.9c-27.4,4.6-35.7,46.5-15.2,64.9c25.9,23.4,66.2,0.2,55.2-38.1
			C1374.7,357.5,1361.5,345.3,1340,348.9z M1362.7,399.4c-3.4,4.5-8.2,6.9-14.1,7l0,0h-0.1h-0.1l0,0c-5.8-0.1-10.7-2.4-14.1-7
			c-2.1-2.7-3.4-6.2-4.1-10c-0.1,0-0.1,0.1-0.1,0.1c-0.3,0.2-0.6,0.2-0.9,0.2c-0.7,0-1.4-0.4-1.8-1.1c-0.5-1-0.1-2.2,0.8-2.7
			c0.5-0.3,1.1-0.5,1.5-0.8c0-0.3-0.1-0.5-0.1-0.7c0-2.6,0.3-5.1,0.9-7.6c-0.3-0.1-0.5-0.1-0.7-0.2c-1.1-0.2-1.9-1.2-1.7-2.3
			c0.2-1.1,1.2-1.9,2.3-1.7c0.5,0.1,0.9,0.2,1.4,0.3c1.6-3.8,4.1-7,7.4-9.2c0-0.2-0.1-0.3-0.1-0.4c-0.2-1.1,0.6-2.2,1.7-2.3
			c0.8-0.1,1.6,0.3,2,0.9c1.5-0.5,3.1-0.8,4.8-0.9v-0.1c0.2,0,0.4,0.1,0.6,0.1c0.2,0,0.4-0.1,0.6-0.1v0.1c1.4,0.1,2.8,0.3,4.1,0.7
			c0.4-0.6,1.2-1,2-0.8c1.1,0.2,1.8,1.3,1.6,2.4c0,0.1,0,0.1,0,0.1c6.8,4,10.4,12.6,10.4,21.1
			C1367.3,390.1,1365.7,395.5,1362.7,399.4z"/>
		<path fill="#FFFFFF" d="M1349.2,394c-0.9-1.9-1.7-3.8-2.5-5.8c-1.1,2.6-2.4,5.4-3.7,7.9c-1,1.9-1.9,3.8-2.6,5.3
			c2.3,1.5,5.1,2.3,8.2,2.3c1.6,0,3.1-0.2,4.5-0.6c-0.2-0.2-0.4-0.5-0.5-0.8C1351.8,399.6,1350.6,396.9,1349.2,394z"/>
		<path fill="#FFFFFF" d="M1363.1,381.3c-3.8,1.2-6.9,1.7-9.6,1.7c-1.6,0-3-0.2-4.4-0.5c0.8,3.2,2.3,6.6,3.8,9.9
			c1.3,2.8,2.6,5.8,3.5,8.7c0.1,0.2,0.1,0.3,0.1,0.5c1.6-0.9,3-2.2,4.1-3.7c2.6-3.5,4.1-8.3,4.1-13.5c0-1.4-0.1-2.7-0.3-4.1
			C1364.1,380.7,1363.7,381.1,1363.1,381.3z"/>
		<path fill="#FFFFFF" d="M1237.5,461c-1.8-13.2-3.7-26.8-4.7-40.6c-1.6-21.4-5.6-83.3-5-93.1l0.1-1.1l-0.7-0.8
			c-0.9-1-0.9-1.1-15.5-1.1h-2.5v2.5c0,6.6,1.3,31.1,2.5,52.7c0.7,14.2,1.5,27.8,1.7,33.3c-21.8,2.4-34.9,12.6-40,31.2
			c-3.3,11.7-1.2,24.4,5.5,33.2c5.4,7.1,13.1,11,21.9,11c0.4,0,0.7,0,1.2,0c9.5-0.4,16.5-6,21.7-12c0.2,1.1,0.5,2.2,0.7,3.4
			c0.2,1.1,0.4,2.1,0.6,3.1l0.6,2.4l2.4-0.4c4.1-0.7,6.4-1.1,10.7-2.5l2-0.6l-0.3-2.1C1239.2,473.3,1238.4,467.2,1237.5,461z"/>
		<path fill="#FFFFFF" d="M1261.6,244.3l-2.9-2.5c-1.7-1.5-3.7-3.3-5.8-5.3c-5.6-5.1-11.9-10.8-17-14.4l-4.9-3.5l-2.6,5.4
			c-3.8,7.7-8.9,12.2-13.7,12.2c-3.3,0-6.4-2.3-8.5-6.4c-6.3-12.3-5.1-53.4-3.8-68.5c4.3,0.1,8.5,0.2,12,0.2c4.8,0,8.4-0.1,10.7-0.3
			l4.1-0.4l0.5-4.1c0.6-5.6,0.3-13.5-0.1-19.9c-0.1-1.3-0.1-2.6-0.2-3.7l-0.2-5.1l-5.1,0.2c-5.5,0.3-14.3,0.4-21.1,0.4
			c-0.1,0-0.2,0-0.3,0c0-3.6,0-6.9,0.1-10.1c0.1-6.1,0.1-11.9-0.1-19.2l-0.1-4.8l-4.8-0.1c-2.6-0.1-6.1-0.1-9.5,0
			c-1.9,0-4,0.1-5.8,0.1c-2.4,0-4.3-0.1-5.6-0.1l-4.7-0.2l-0.5,4.7c-0.1,0.7-1.7,16.2-2.2,28.6c-5,0.1-9,0.2-13.4,0.2
			c-3.6,0.1-7.3,0.1-12.1,0.2l-5.1,0.1l0.1,5.1c0.1,4.5,0.1,8.5,0,13.1c0,2.9-0.1,6-0.1,9.4v5.2l5.2-0.1c5-0.1,8.6,0.1,12.2,0.3
			c2.9,0.1,5.7,0.3,8.9,0.3c0.7,0,1.5,0,2.3,0c-2.2,29.6-3,60.6,4.3,89.4c5.4,21.4,20.1,34.2,39.4,34.2c9.9,0,19.9-3.5,27.7-9.5
			c8-6.3,15.9-16.5,21.2-27.4L1261.6,244.3z M1155.8,155.7c-4.7,2.1-8.2-4.4-5.4-8.6C1155.6,139.3,1163.4,152.3,1155.8,155.7z
			 M1204.8,153.6c-4.7,2.1-8.2-4.4-5.4-8.6C1204.5,137.2,1212.3,150.2,1204.8,153.6z M1192.5,115.5c5.2-7.8,12.9,5.3,5.4,8.6
			C1193.2,126.1,1189.8,119.6,1192.5,115.5z M1176.4,98.6c5.2-7.8,12.9,5.3,5.4,8.6C1177.1,109.2,1173.6,102.8,1176.4,98.6z
			 M1172.6,135.5c5.2-7.8,12.9,5.3,5.4,8.6C1173.3,146.2,1169.9,139.7,1172.6,135.5z M1171.4,198.8c5.2-7.8,12.9,5.3,5.4,8.6
			C1172.1,209.4,1168.6,203,1171.4,198.8z M1183.2,259.3c-4.7,2.1-8.2-4.4-5.4-8.6C1183,243,1190.7,256,1183.2,259.3z M1187.4,177.4
			c-4.7,2.1-8.2-4.4-5.4-8.6C1187.1,161,1194.8,174,1187.4,177.4z M1197.3,227.7c-4.7,2.1-8.2-4.4-5.4-8.6
			C1197.1,211.3,1204.8,224.4,1197.3,227.7z M1206,245.4c5.2-7.8,12.9,5.3,5.4,8.6C1206.7,256.1,1203.3,249.6,1206,245.4z
			 M1218.3,280.6c-4.7,2.1-8.2-4.4-5.4-8.6C1218,264.2,1225.7,277.2,1218.3,280.6z M1230.9,230.7c5.2-7.8,12.9,5.3,5.4,8.6
			C1231.5,241.3,1228.1,234.8,1230.9,230.7z M1242.3,267.7c-4.7,2.1-8.2-4.4-5.4-8.6C1242,251.3,1249.7,264.3,1242.3,267.7z"/>
		<path fill="#FFFFFF" d="M987.6,234.7c0.3-1.9,0.6-4,0.9-6c0.9-5.7,1.8-11.6,1.9-16.4c-0.6,0.1-1.2,0.2-1.7,0.3
			c-4.3,0.7-9.4,1.5-14.1,1.5c-3.1,0-5.7-0.3-7.9-0.9c-1.1,3.1-2.2,7.2-3.4,11.4c-0.7,2.5-1.4,5-2.2,7.5c5.8,1.6,11.8,1.9,17.7,2.4
			c3,0.2,6,0.4,8.7,0.7C987.6,235.1,987.6,234.9,987.6,234.7z"/>
		<path fill="#FFFFFF" d="M978.9,173.7c4.4-1.3,9.2-1.9,14-1.9c1.9,0,3.9,0.1,5.7,0.3l3.7,0.4l0.2-3.7c0.2-5.5,0.8-14.6,0.8-14.7
			l0.2-3l-3-0.6c-0.4-0.1-9.6-1.9-19.2-1.9c-3.4,0-6.4,0.3-9,0.7c0.8,4.1,2.4,9.3,3.8,14.4C977.1,167.1,978.1,170.6,978.9,173.7z"/>
		<path fill="#FFFFFF" d="M944.4,165c3.8,2.6,8.4,7.7,12.9,12.5c1.9,2.1,3.7,4.1,5.3,5.7c3.1-3.4,7.2-6.1,11.9-8
			c-0.8-3.2-1.8-6.7-2.8-10.2c-1.5-5.2-3-10.4-3.9-14.7C957.6,153.1,949.8,158,944.4,165z"/>
		<path fill="#FFFFFF" d="M993.1,229.5c-0.3,2-0.6,4-0.9,5.9c-0.1,0.2-0.1,0.4-0.2,0.6c1.5,0.3,2.9,0.7,4.3,1.1
			c5.2,1.7,8.4,4.6,9.3,8.5c0.8,3.3-0.2,6.8-2.5,9.3c-5.8,6.1-13.4,9-23.8,9c-7,0-14.4-1.3-21.7-2.5c-1.7-0.3-3.4-0.6-5.1-0.8
			l-3.8-0.6l-0.3,3.8c-0.1,1.2-0.2,2.3-0.3,3.5c-0.3,4.6-0.7,9.4-0.3,14.4l0.2,2.5l2.5,0.6c12.5,3,25.8,6,39.1,6
			c10.6,0,19.4-1.9,27.2-5.7c18.3-9.1,26.4-31.9,19-53c-5-14.2-14.9-21-30.2-21c-3.5,0-7.1,0.3-10.5,0.8
			C995,216.9,994,223.3,993.1,229.5z"/>
		<path fill="#FFFFFF" d="M957.1,197.1c0.1-3.7,1.1-7.1,2.8-10.1c-1.8-1.8-3.8-4-6-6.4c-4-4.3-8.7-9.5-12-11.9
			c-0.3,0.5-0.6,1-0.8,1.5c-4.5,8.8-6.7,20.3-5.5,31.1c1-0.2,2-0.4,3.2-0.6C944.1,199.8,953.2,198.1,957.1,197.1z"/>
		<path fill="#FFFFFF" d="M946.3,224.4c3.3,3,6.7,5,10.3,6.4c0.7-2.5,1.4-4.9,2.1-7.3c1.3-4.5,2.5-8.9,3.7-12.2
			c-0.5-0.4-1.1-0.8-1.5-1.3c-1.9-1.9-3.1-4.6-3.6-8.2c-3.1,0.7-8.5,1.8-17.8,3.5c-1.1,0.2-2.2,0.4-3.3,0.6
			C937.9,213.1,941.1,219.6,946.3,224.4z"/>
		<path fill="#FFFFFF" d="M940.2,146c2.1-1.6,2.4-4.5,0.8-6.5c-1.8-2.3-3.7-4.5-5.6-6.7c-0.7-0.9-1.5-1.7-2.3-2.6
			c-1.6-1.9-4.6-2.2-6.5-0.5c-1.9,1.6-2.2,4.6-0.5,6.5c0.8,0.9,1.6,1.8,2.3,2.7c1.8,2.2,3.6,4.2,5.3,6.3c0.9,1.2,2.3,1.8,3.7,1.8
			C938.4,146.9,939.3,146.6,940.2,146z"/>
		<path fill="#FFFFFF" d="M941.1,124.6c1.6,3.5,3.2,7.1,5.5,10.2c0.9,1.2,2.3,1.8,3.7,1.8c0.9,0,1.9-0.3,2.8-0.9
			c2.1-1.5,2.5-4.4,0.9-6.5c-1.7-2.2-3.1-5.3-4.4-8.4l-0.7-1.7c-1.1-2.3-3.8-3.4-6.1-2.3c-2.3,1.1-3.4,3.8-2.3,6.1L941.1,124.6z"/>
		<path fill="#FFFFFF" d="M956.3,119.7c0.1,2.8,0.1,5.8,0.6,8.5c0.4,2.2,2.4,3.8,4.5,3.8c0.3,0,0.6-0.1,0.8-0.1
			c2.5-0.5,4.2-2.9,3.7-5.4c-0.4-1.9-0.4-4.3-0.5-7c-0.1-2.8-0.1-5.7-0.6-8.4c-0.4-2.5-2.8-4.2-5.3-3.8c-2.5,0.4-4.3,2.8-3.8,5.3
			C956.3,114.7,956.3,117.3,956.3,119.7z"/>
		<path fill="#FFFFFF" d="M1062,214.7c0.2,0,0.4-0.1,0.6-0.2c5.2-2.5,9.6-4.4,13.7-5.6c0.1,2.7,0.2,5.5,0.5,8.3
			c0.1,0.6,0.2,1.3,0.2,1.9c-5.5,2.1-10.7,5-15.7,7.9c-0.6,0.4-0.8,1.1-0.5,1.7c0.2,0.4,0.7,0.6,1.1,0.6c0.2,0,0.4-0.1,0.6-0.2
			c4.7-2.7,9.6-5.5,14.8-7.5c0.7,4.7,1.7,9.5,3.4,14.2c-1.5,1.6-3.1,3.1-4.6,4.6c-2.4,2.4-4.7,4.6-6.6,6.8c-0.4,0.5-0.4,1.4,0.2,1.8
			c0.3,0.2,0.5,0.3,0.8,0.3c0.4,0,0.7-0.2,1-0.5c1.8-2.2,4.1-4.4,6.4-6.6c1.3-1.3,2.6-2.5,3.9-3.8c1.4,3.3,3.2,6.5,5.5,9.6
			c-3.4,4.8-6.6,10-8.5,13.4c-0.3,0.6-0.1,1.4,0.5,1.7c0.2,0.1,0.4,0.2,0.6,0.2c0.5,0,0.9-0.3,1.1-0.7c1.7-3.2,4.8-8,8-12.5
			c0.9,1.1,1.8,2.1,2.9,3.1c4.5,4.4,9.4,7.2,14.6,9c-0.8,3.2-2.2,5.9-3.5,6.8c-0.6,0.4-0.7,1.2-0.3,1.8c0.3,0.3,0.6,0.5,1,0.5
			c0.3,0,0.5-0.1,0.8-0.3c1.8-1.4,3.4-4.5,4.4-8.1c9.6,2.6,20.1,1.9,30.9,0.3c-12.3-3.5-20-7.5-24.8-15.7
			c-13.1-22.1-8.5-46.6-11.7-69.8c-1.5-11-0.4-19-8.3-29c-7.2-9.1-19.1-14-33.7-18.1c24.4,25.2,15,48.8,14.8,75.5
			c-4.4,1.3-9.3,3.2-14.9,6c-0.6,0.3-0.9,1.1-0.6,1.7C1061,214.5,1061.5,214.7,1062,214.7z"/>
		<path fill="#FFFFFF" d="M1076,111.4c15.8,4.2,16-24.4,0.5-21.6C1066.3,91.7,1066,108.7,1076,111.4z"/>
		<path fill="#FFFFFF" d="M1355,205.1c-2.7-11.6-10.6-19.9-24.2-18.4c-17.4,1.8-23.9,27.7-11.7,40
			C1334.6,242.5,1360.7,229.6,1355,205.1z M1333.5,218.1c-10-2.7-9.7-19.7,0.5-21.6C1349.5,193.7,1349.2,222.4,1333.5,218.1z"/>
		<path fill="#FFFFFF" d="M1372,263.1c18.6-19.6,25.3-54.2,16-82.2c-8.4-25.2-29.3-42-52-42c-10.6,0-20.8,3.8-29.7,11
			c-14.5,11.9-24.7,29.3-29.1,50.5c-5.4,25.2,3,48,24.2,65.9c10,8.4,22.2,13.1,34.3,13.1C1349.3,279.1,1362.2,273.5,1372,263.1z
			 M1315.8,243.9c-11.3-9.5-17.3-22.3-14-37.8c2.6-12.4,8.6-22.8,17-29.6c16.6-13.5,38.5-3,45.5,17.9c5.3,15.9,2,36.2-9.2,48
			C1344,253.9,1327.6,253.9,1315.8,243.9z"/>
	</g>
</g>
</svg>
