<?xml version="1.0" encoding="utf-8"?>
<!-- Generator: Adobe Illustrator 18.1.1, SVG Export Plug-In . SVG Version: 6.00 Build 0)  -->
<!DOCTYPE svg PUBLIC "-//W3C//DTD SVG 1.1//EN" "http://www.w3.org/Graphics/SVG/1.1/DTD/svg11.dtd">
<svg version="1.1" id="layout" xmlns="http://www.w3.org/2000/svg" xmlns:xlink="http://www.w3.org/1999/xlink" x="0px" y="0px"
	 viewBox="307.7 0 650.5 559.7" enable-background="new 307.7 0 650.5 559.7" xml:space="preserve">
<g>
	<path fill="#231F20" d="M685.2,212.6c-2.7,4.2,0.7,10.7,5.4,8.6C698.1,217.9,690.4,204.9,685.2,212.6z"/>
	<path fill="#231F20" d="M675.3,162.3c-2.7,4.2,0.7,10.7,5.4,8.6C688.1,167.6,680.5,154.5,675.3,162.3z"/>
	<path fill="#231F20" d="M706.2,265.5c-2.7,4.2,0.7,10.7,5.4,8.6C719,270.8,711.3,257.7,706.2,265.5z"/>
	<path fill="#231F20" d="M730.2,252.6c-2.7,4.2,0.7,10.7,5.4,8.6C743,257.8,735.3,244.8,730.2,252.6z"/>
	<path fill="#231F20" d="M699.3,238.9c-2.7,4.2,0.7,10.7,5.4,8.6C712.2,244.2,704.5,231.1,699.3,238.9z"/>
	<path fill="#231F20" d="M671.2,244.3c-2.8,4.2,0.7,10.7,5.4,8.6C684,249.5,676.3,236.5,671.2,244.3z"/>
	<path fill="#231F20" d="M724.2,224.2c-2.7,4.2,0.7,10.6,5.4,8.6C737,229.5,729.3,216.4,724.2,224.2z"/>
	<path fill="#231F20" d="M692.7,138.5c-2.8,4.2,0.7,10.7,5.4,8.6C705.6,143.7,697.8,130.7,692.7,138.5z"/>
	<path fill="#231F20" d="M643.7,140.6c-2.7,4.2,0.7,10.7,5.4,8.6C656.7,145.8,649,132.8,643.7,140.6z"/>
	<path fill="#231F20" d="M691.3,117.6c7.4-3.3-0.3-16.4-5.4-8.6C683.1,113.1,686.6,119.6,691.3,117.6z"/>
	<path fill="#231F20" d="M664.7,192.3c-2.7,4.2,0.7,10.6,5.4,8.6C677.6,197.6,669.9,184.5,664.7,192.3z"/>
	<path fill="#231F20" d="M675.1,100.7c7.4-3.3-0.3-16.4-5.4-8.6C666.9,96.3,670.4,102.8,675.1,100.7z"/>
	<path fill="#231F20" d="M671.4,137.6c7.4-3.3-0.3-16.4-5.4-8.6C663.2,133.2,666.7,139.7,671.4,137.6z"/>
	<path fill="#231F20" d="M827.3,190c-10.2,1.9-10.5,18.9-0.5,21.6C842.6,215.9,842.8,187.2,827.3,190z"/>
	<path fill="#231F20" d="M850.1,356.7c0-0.1,0-0.1,0-0.1c0.2-1.1-0.5-2.2-1.6-2.4c-0.8-0.2-1.6,0.2-2,0.8c-1.3-0.4-2.6-0.6-4.1-0.7
		v-0.1c-0.2,0-0.4,0.1-0.6,0.1c-0.2,0-0.4-0.1-0.6-0.1v0.1c-1.7,0.1-3.4,0.4-4.8,0.9c-0.4-0.6-1.2-1-2-0.9c-1.1,0.2-1.8,1.2-1.7,2.3
		c0.1,0.2,0.1,0.3,0.1,0.4c-3.3,2.2-5.7,5.4-7.4,9.2c-0.5-0.1-0.9-0.2-1.4-0.3c-1.1-0.2-2.1,0.6-2.3,1.7s0.6,2.1,1.7,2.3
		c0.2,0.1,0.4,0.1,0.7,0.2c-0.6,2.5-0.9,5-0.9,7.6c0,0.2,0.1,0.5,0.1,0.7c-0.5,0.3-1,0.5-1.5,0.8c-0.9,0.5-1.4,1.7-0.8,2.7
		c0.4,0.7,1.1,1.1,1.8,1.1c0.3,0,0.6-0.1,0.9-0.2c0.1,0,0.1-0.1,0.1-0.1c0.7,3.8,2.1,7.3,4.1,10c3.4,4.5,8.2,6.9,14.1,7h0.1h0.1
		c5.8-0.1,10.7-2.4,14.1-7c3-4,4.6-9.3,4.4-15.1C860.5,369.3,856.9,360.7,850.1,356.7z M841.9,357.1c1.4,0.1,2.7,0.3,4,0.6
		c-1.1,4.8-2.8,8.2-5.2,10.7c-0.5-1.6-1.1-3.2-1.6-4.8c-0.7-2-1.4-4-1.8-5.7C838.6,357.5,840.2,357.2,841.9,357.1z M833.5,359.9
		c0.5,1.7,1.1,3.4,1.7,5.1c0.6,1.7,1.2,3.3,1.6,4.9c-0.1,0-0.2-0.1-0.3-0.1c-2.4-1-5.1-2.1-8.4-2.9
		C829.4,364.1,831.2,361.7,833.5,359.9z M826.8,370.8c2.9,0.7,5.2,1.6,7.5,2.5c-1.9,1.1-4,2-6.2,3.1c-0.7,0.3-1.4,0.6-2.2,1
		C825.9,375.1,826.2,372.9,826.8,370.8z M830.6,392.1c-0.2-0.3-0.5-0.5-0.7-0.8c-1.9-2.6-3.2-6-3.7-9.6c1.3-0.6,2.5-1.2,3.6-1.7
		c2.7-1.3,5.3-2.5,7.7-4c-0.5,3.4-2.8,7.8-4.8,11.7C832,389.3,831.2,390.7,830.6,392.1z M841.9,397.2c-3.1,0-5.8-0.8-8.2-2.3
		c0.6-1.5,1.6-3.4,2.6-5.3c1.3-2.5,2.7-5.3,3.7-7.9c0.7,1.9,1.6,3.9,2.5,5.8c1.3,2.8,2.6,5.5,3.3,8.2c0.1,0.4,0.3,0.6,0.5,0.8
		C845,397,843.5,397.2,841.9,397.2z M858,377.9c0,5.2-1.5,10-4.1,13.5c-1.2,1.5-2.5,2.8-4.1,3.7c0-0.2,0-0.3-0.1-0.5
		c-0.9-3-2.2-5.9-3.5-8.7c-1.5-3.3-3-6.6-3.8-9.9c1.4,0.3,2.8,0.5,4.4,0.5c2.7,0,5.8-0.5,9.6-1.7c0.6-0.2,1-0.6,1.2-1
		C857.9,375.2,858,376.5,858,377.9z M855.3,370.9c-5.4,1.7-9,1.8-12.3,1.1c3-2.9,5.3-6.7,6.7-12.4c3.8,2.6,6.4,7,7.6,11.9
		C856.7,370.9,856,370.6,855.3,370.9z"/>
	<path fill="#231F20" d="M812.1,170c-8.4,6.8-14.4,17.2-17,29.6c-3.3,15.4,2.7,28.2,14,37.8c11.9,10,28.2,10,39.2-1.5
		c11.2-11.8,14.5-32.1,9.2-48C850.6,167.1,828.8,156.5,812.1,170z M812.5,220.2c-12.2-12.4-5.7-38.2,11.7-40
		c13.6-1.4,21.5,6.8,24.2,18.4C854,223.1,828,236,812.5,220.2z"/>
	<path fill="#231F20" d="M851.7,46.8C770,11.7,677.7,7,658,4.5c-149.4-19-276.7,19-332.2,170.4c-41.6,113.6-12.3,256.9,95,324.1
		c106.9,67,346.5,94,450.2-0.7C1032.8,350.5,935.3,82.6,851.7,46.8z M770.3,318.1c10.1-1.9,9.9,16.8-0.3,14
		C763.4,330.3,763.6,319.3,770.3,318.1z M569.8,83.3c15.5-2.8,15.3,25.8-0.5,21.6C559.3,102.2,559.6,85.2,569.8,83.3z M554.7,205.9
		c5.6-2.8,10.4-4.7,14.9-6c0.2-26.7,9.6-50.3-14.8-75.5c14.5,4.1,26.4,9,33.7,18.1c7.9,10,6.8,18,8.3,29
		c3.2,23.2-1.4,47.7,11.7,69.8c4.8,8.2,12.5,12.2,24.8,15.7c-10.8,1.6-21.3,2.4-30.9-0.3c-0.9,3.6-2.5,6.7-4.4,8.1
		c-0.3,0.2-0.5,0.3-0.8,0.3c-0.4,0-0.7-0.2-1-0.5c-0.4-0.6-0.3-1.4,0.3-1.8c1.3-0.9,2.6-3.7,3.5-6.8c-5.2-1.8-10.1-4.6-14.6-9
		c-1.1-1-2-2.1-2.9-3.1c-3.2,4.6-6.2,9.4-8,12.5c-0.2,0.4-0.6,0.7-1.1,0.7c-0.2,0-0.4-0.1-0.6-0.2c-0.6-0.4-0.8-1.1-0.5-1.7
		c1.8-3.4,5.1-8.5,8.5-13.4c-2.3-3.1-4.1-6.3-5.5-9.6c-1.3,1.3-2.6,2.6-3.9,3.8c-2.4,2.3-4.6,4.5-6.4,6.6c-0.3,0.3-0.6,0.5-1,0.5
		c-0.3,0-0.5-0.1-0.8-0.3c-0.5-0.4-0.6-1.3-0.2-1.8c1.9-2.3,4.2-4.5,6.6-6.8c1.6-1.5,3.2-3,4.6-4.6c-1.7-4.7-2.7-9.5-3.4-14.2
		c-5.1,1.9-10,4.7-14.8,7.5c-0.2,0.1-0.4,0.2-0.6,0.2c-0.4,0-0.9-0.2-1.1-0.6c-0.3-0.6-0.2-1.4,0.5-1.7c5-2.9,10.2-5.8,15.7-7.9
		c-0.1-0.6-0.2-1.3-0.2-1.9c-0.3-2.8-0.5-5.6-0.5-8.3c-4.1,1.2-8.5,3.1-13.7,5.6c-0.2,0.1-0.4,0.2-0.6,0.2c-0.5,0-0.9-0.3-1.2-0.7
		C553.8,206.9,554,206.2,554.7,205.9z M529.2,225.3c7.5,21.1-0.7,43.9-19,53c-7.7,3.8-16.6,5.7-27.2,5.7c-13.3,0-26.6-3-39.1-6
		l-2.5-0.6l-0.2-2.5c-0.4-5,0-9.7,0.3-14.4c0.1-1.2,0.2-2.4,0.3-3.5l0.3-3.8l3.8,0.6c1.7,0.3,3.4,0.5,5.1,0.8
		c7.2,1.3,14.6,2.5,21.7,2.5c10.4,0,18-2.9,23.8-9c2.4-2.5,3.3-6,2.5-9.3c-0.9-3.8-4.2-6.7-9.3-8.5c-1.4-0.4-2.8-0.8-4.3-1.1
		c0.1-0.2,0.1-0.4,0.2-0.6c0.3-1.9,0.6-3.9,0.9-5.9c0.9-6.2,1.9-12.6,2-17.8c3.5-0.5,7.1-0.8,10.5-0.8
		C514.2,204.3,524.2,211.2,529.2,225.3z M454.4,225.7c0.7-2.5,1.5-5.1,2.2-7.5c1.2-4.3,2.3-8.3,3.4-11.4c2.2,0.6,4.8,0.9,7.9,0.9
		c4.7,0,9.7-0.8,14.1-1.5c0.6-0.1,1.2-0.2,1.7-0.3c-0.1,4.8-1,10.7-1.9,16.4c-0.3,2-0.6,4-0.9,6c0,0.2,0,0.4-0.1,0.6
		c-2.8-0.4-5.7-0.5-8.7-0.7C466.2,227.7,460.2,227.3,454.4,225.7z M474.7,142.1c9.5,0,18.8,1.9,19.2,1.9l3,0.6l-0.2,3
		c0,0.1-0.6,9.2-0.8,14.7l-0.2,3.7l-3.7-0.4c-1.8-0.2-3.8-0.3-5.7-0.3c-4.7,0-9.5,0.6-14,1.9c-0.8-3.2-1.8-6.6-2.7-10
		c-1.5-5.1-3-10.4-3.8-14.4C468.3,142.4,471.3,142.1,474.7,142.1z M465,158.5c1,3.5,2,7,2.8,10.2c-4.7,1.9-8.9,4.6-11.9,8
		c-1.6-1.6-3.4-3.6-5.3-5.7c-4.4-4.8-9-9.9-12.9-12.5c5.3-7,13.1-11.9,23.3-14.7C462,148.1,463.5,153.3,465,158.5z M453,100.8
		c2.5-0.4,4.9,1.3,5.3,3.8c0.5,2.7,0.5,5.6,0.6,8.4c0.1,2.6,0.1,5.1,0.5,7c0.5,2.5-1.2,5-3.7,5.4c-0.3,0.1-0.6,0.1-0.8,0.1
		c-2.2,0-4.1-1.6-4.5-3.8c-0.5-2.6-0.6-5.6-0.6-8.5c0-2.5-0.1-5.1-0.5-7.2C448.7,103.5,450.4,101.2,453,100.8z M436,110.3
		c2.3-1.1,5.1,0,6.1,2.3l0.7,1.7c1.4,3.1,2.7,6.2,4.4,8.4c1.5,2.1,1.1,5-0.9,6.5c-0.8,0.6-1.8,0.9-2.8,0.9c-1.4,0-2.8-0.6-3.7-1.8
		c-2.3-3.1-3.9-6.7-5.5-10.2l-0.7-1.7C432.6,114.1,433.7,111.3,436,110.3z M427,138.7c-1.6-2.2-3.4-4.2-5.3-6.3
		c-0.7-0.9-1.5-1.8-2.3-2.7c-1.7-1.9-1.4-4.9,0.5-6.5c1.9-1.7,4.9-1.4,6.5,0.5c0.7,0.9,1.5,1.7,2.3,2.6c1.8,2.2,3.8,4.4,5.6,6.7
		c1.6,2,1.2,4.9-0.8,6.5c-0.8,0.6-1.8,0.9-2.8,1.1C429.3,140.5,427.9,139.9,427,138.7z M434.3,163.8c0.3-0.5,0.6-1,0.8-1.5
		c3.3,2.3,8.1,7.5,12,11.9c2.2,2.4,4.2,4.6,6,6.4c-1.7,3-2.7,6.3-2.8,10.1c-3.9,0.9-13,2.7-18.4,3.7c-1.2,0.2-2.2,0.4-3.2,0.6
		C427.6,184.1,429.8,172.6,434.3,163.8z M432.9,198.8c9.3-1.7,14.6-2.8,17.8-3.5c0.5,3.5,1.7,6.3,3.6,8.2c0.5,0.5,1,0.9,1.5,1.3
		c-1.2,3.3-2.4,7.6-3.7,12.2c-0.7,2.4-1.4,4.8-2.1,7.3c-3.6-1.4-7.1-3.4-10.3-6.4c-5.3-4.7-8.4-11.3-10-18.4
		C430.7,199.3,431.8,199.1,432.9,198.8z M475.7,446c-3.8,2.4-8.2,3.5-13.4,3.5c-2.6,0-5.5-0.3-9-0.9c-7.9-1.5-11.9-4.1-15.6-6.6
		c-0.8-0.5-1.6-1.1-2.5-1.6l-2.4-1.5l1.3-2.6c0.6-1.2,5.6-12.1,7.4-16.2l1.2-2.6l2.7,0.9c3,1,8.5,2.6,10.9,2.7h0.6
		c5.4,0,9-1.8,9.7-5.2c0.8-3.6-1.8-9.2-8.7-12.7l-1.2-0.6c-12.9-6.6-26.1-13.5-25.6-32c0.5-17.5,15.3-27.9,29.3-27.9
		c3.9,0,7.7,0.8,11.2,2.3l2.3,0.9l-0.4,2.5c-0.2,1.1-0.4,2.4-0.7,3.8c-0.6,3.1-1.3,6.6-1.6,9.8l-0.4,3.4l-3.4-0.7
		c-1.2-0.3-2.4-0.4-3.6-0.4c-1.8,0-5.2,0.3-7.3,2.5c-1.5,1.5-2.2,3.9-2.1,7c0.2,4.5,2.7,5.8,10.5,8.4c4.1,1.3,8.6,2.9,13.3,5.7
		c8.9,5.3,14,15,14.1,26.6C492.5,427.5,486.1,439.6,475.7,446z M576.9,463c-9.9,11.1-38.4,10.2-46.5-4.4
		c-6.5-11.6-4.6-31.9-5.3-55.6c-1.9,0.1-15,0.6-17.4-0.8c-3.3-1.9-4-10.9-0.9-13.9c1.9-1.9,11.6-1.1,18.4-1.3
		c-0.2,0-0.2-22.4,0.1-24.8c5.7-1,12-0.7,17.9-0.5c1.3,0,1.8,25.1,1.9,27c5.6,0.1,18.1-1.7,18.2,6.8c0.1,3.9-0.3,6.4-1.7,7.8
		c-3.6,3.3-11.6,1.6-17,1.7c0.2,4.6,0.4,11.7,0.5,16.3c0.2,7.6-1.5,28,9.2,30.3c6.4,1.4,11-5.2,14.4-9.3c4.3-5.2,12.6-2.7,15.1,3.5
		C585.9,452,580.6,458.9,576.9,463z M584.3,331c0,0,11.9-1.7,17.8-1.8c0.1,5.3,0.4,10.6,0.9,15.9c-4.7,0.7-12,2-16.7,3.2
		C585.6,341.9,584.9,336,584.3,331z M587.1,353.4c4.4-1.2,12-2.6,16.7-3.3c0.4,2.3,0.8,4.6,1.4,6.9c0.6,2.5,1.4,5.4,2.4,8.4
		c-4.6,2.2-10.5,6.2-16.3,10.3C589.5,368.4,588.2,360.7,587.1,353.4z M592.7,380.9c0.3-0.2,0.6-0.4,0.8-0.6
		c4.1-2.8,11-7.7,15.8-10.1c1.6,4.5,3.7,8.7,6,11.6c-1,2.4-2.1,5.1-3.3,8c-2.1,5.4-4.3,11-6.4,15.5
		C599.8,400,595.7,391.1,592.7,380.9z M609.8,408.4c2.3-4.8,4.7-10.9,7-16.7c0.9-2.3,1.8-4.5,2.6-6.5c1.9,0.8,4.1,0.5,6.4-1.4
		c2.2,4.1,5.5,10.7,8.5,16.6c0.5,1,0.9,1.9,1.4,2.8C628.9,411.1,620.2,414.8,609.8,408.4z M639.2,398.7c-0.1-0.2-0.2-0.4-0.3-0.6
		c-3.3-6.5-7.1-13.9-9.3-17.9c-0.1-0.2-0.2-0.3-0.3-0.5c2.3-3.3,4.1-7.5,5.6-12.3c2.5,2.3,6.5,5.2,11.4,8.6c1.1,0.7,2.2,1.5,3.1,2.1
		C646.7,385.2,643.3,392.7,639.2,398.7z M655.2,360.1c-1,3.7-2.3,8.2-4,13.1c-0.6-0.4-1.3-0.9-1.9-1.4c-4-2.7-10-6.8-11.7-9
		c-0.3-0.4-0.6-0.6-1.1-0.7c1.2-4.8,2.2-10,2.8-15c0.7,0.2,1.5,0.4,2.4,0.7c4.5,1.2,11.7,3.1,15.2,4.7
		C656.5,354.8,655.9,357.3,655.2,360.1z M657.7,347.3c-3.6-1.4-8.8-2.8-14.6-4.4c-1.1-0.3-2.2-0.5-3.1-0.8
		c0.6-5.3,0.9-10.2,1.1-14.3c4.1-0.3,14.1,2.4,18.2,3.1C658.5,337.7,658.3,342.3,657.7,347.3z M731.7,475.8
		c-4.3,1.4-6.6,1.8-10.7,2.5l-2.4,0.4l-0.6-2.4c-0.2-1.1-0.4-2.1-0.6-3.1c-0.2-1.2-0.5-2.3-0.7-3.4c-5.2,6-12.1,11.6-21.7,12
		c-0.4,0-0.8,0-1.2,0c-8.7,0-16.5-3.9-21.9-11c-6.7-8.8-8.8-21.5-5.5-33.2c5.2-18.5,18.3-28.8,40-31.2c-0.2-5.5-0.9-19.1-1.7-33.3
		c-1.2-21.7-2.5-46.1-2.5-52.7v-2.5h2.5c14.5,0,14.5,0.1,15.5,1.1l0.7,0.8l-0.1,1.1c-0.6,9.8,3.4,71.7,5,93.1
		c1,13.7,2.9,27.4,4.7,40.6c0.9,6.2,1.7,12.3,2.6,18.5l0.3,2.1L731.7,475.8z M732.1,268.6c-7.8,6.1-17.9,9.5-27.7,9.5
		c-19.3,0-34-12.8-39.4-34.2c-7.3-28.8-6.5-59.8-4.3-89.4c-0.8,0-1.5,0-2.3,0c-3.2,0-6-0.2-8.9-0.3c-3.6-0.2-7.3-0.3-12.2-0.3
		l-5.2,0.1v-5.2c0-3.4,0.1-6.5,0.1-9.4c0.1-4.6,0.1-8.6,0-13.1l-0.1-5.1l5.1-0.1c4.7-0.1,8.5-0.1,12.1-0.2c4.5-0.1,8.4-0.1,13.4-0.2
		c0.5-12.4,2.2-27.9,2.2-28.6l0.5-4.7l4.7,0.2c1.3,0.1,3.2,0.1,5.6,0.1c1.8,0,3.8-0.1,5.8-0.1c3.4-0.1,6.8-0.1,9.5,0l4.8,0.1
		l0.1,4.8c0.2,7.3,0.1,13.1,0.1,19.2c-0.1,3.2-0.1,6.5-0.1,10.1c0.1,0,0.2,0,0.3,0c6.7,0,15.6-0.2,21.1-0.4l5.1-0.2l0.2,5.1
		c0.1,1.1,0.1,2.4,0.2,3.7c0.3,6.3,0.7,14.2,0.1,19.9l-0.5,4.1l-4.1,0.4c-2.3,0.2-5.8,0.3-10.7,0.3c-3.5,0-7.7-0.1-12-0.2
		c-1.2,15.2-2.5,56.3,3.8,68.5c2.1,4.1,5.2,6.4,8.5,6.4c4.8,0,10-4.5,13.7-12.2l2.6-5.4l4.9,3.5c5.1,3.6,11.4,9.4,17,14.4
		c2.1,1.9,4.1,3.7,5.8,5.3l2.9,2.5l-1.6,3.4C748,252.2,740.1,262.4,732.1,268.6z M757.3,434.9c-5.2-8.7-4.8-17.6-3.6-25.6
		c3-20.2,17.8-33.6,4.8-57c8.6,5.5,15.4,11,18.5,18.1c3.4,7.8,1.3,12.6,0.4,19.8c-1.9,15-9,29.4-4.4,45.8c1.7,6.1,6,10.1,13.3,14.9
		C774.6,449,763.7,445.7,757.3,434.9z M818.1,407.3c-20.4-18.4-12.2-60.3,15.2-64.9c21.5-3.6,34.7,8.6,40,26.8
		C884.3,407.5,844,430.7,818.1,407.3z M865.3,256.6c-9.8,10.3-22.7,16-36.2,16.1c-12.2,0-24.4-4.6-34.3-13.1
		c-21.2-17.9-29.6-40.6-24.2-65.9c4.5-21.2,14.6-38.6,29.1-50.5c8.9-7.2,19.1-11,29.7-11c22.7,0,43.6,16.9,52,42
		C890.7,202.4,883.9,237,865.3,256.6z"/>
</g>
</svg>
