<?xml version="1.0" encoding="utf-8"?>
<!-- Generator: Adobe Illustrator 18.1.1, SVG Export Plug-In . SVG Version: 6.00 Build 0)  -->
<!DOCTYPE svg PUBLIC "-//W3C//DTD SVG 1.1//EN" "http://www.w3.org/Graphics/SVG/1.1/DTD/svg11.dtd">
<svg version="1.1" id="Layer_1" xmlns="http://www.w3.org/2000/svg" xmlns:xlink="http://www.w3.org/1999/xlink" x="0px" y="0px"
	 viewBox="959.4 280 560 560" enable-background="new 959.4 280 560 560" xml:space="preserve">
<g>
	<path fill="#231F20" d="M959.4,280v560h560V280H959.4z M1077,674.8v-5.6c0-8.4,5.6-14,14-14h296.8c8.4,0,14,5.6,14,14v5.6
		c0,8.4-5.6,14-14,14H1091C1084,688.8,1077,681.8,1077,674.8z M1077,553v-7c0-8.4,5.6-14,14-14h296.8c8.4,0,14,5.6,14,14v5.6
		c0,8.4-5.6,14-14,14H1091C1084,567,1077,560,1077,553z M1091,443.8c-8.4,0-14-5.6-14-14v-5.6c0-8.4,5.6-14,14-14h296.8
		c8.4,0,14,5.6,14,14v5.6c0,8.4-5.6,14-14,14H1091z"/>
</g>
</svg>
